<?xml version="1.0" ?>
<!-- Uploaded to: SVG Repo, www.svgrepo.com, Generator: SVG Repo Mixer Tools -->
<svg fill="#000000" width="800px" height="800px" viewBox="0 0 100 100" version="1.1" xml:space="preserve" xmlns="http://www.w3.org/2000/svg" xmlns:xlink="http://www.w3.org/1999/xlink">
<g id="hairdryer"/>
<g id="scissor"/>
<g id="razor"/>
<g id="razor_blade_1_"/>
<g id="comb"/>
<g id="shaving_machine"/>
<g id="barbershop"/>
<g id="barber_pole"/>
<g id="hairstylist"/>
<g id="kids"/>
<g id="mature"/>
<g id="woman"/>
<g id="moustache"/>
<g id="hair_gel"/>
<g id="shampoo"/>
<g id="mirror">
<g>
<path d="M50,9C35.7,9,24,20.7,24,35s11.7,26,26,26s26-11.7,26-26S64.3,9,50,9z M50,59c-13.2,0-24-10.8-24-24s10.8-24,24-24    s24,10.8,24,24S63.2,59,50,59z"/>
<path d="M50,81c-2.8,0-5,2.2-5,5s2.2,5,5,5s5-2.2,5-5S52.8,81,50,81z M50,89c-1.7,0-3-1.3-3-3s1.3-3,3-3s3,1.3,3,3S51.7,89,50,89z    "/>
<path d="M71.2,12.4C64.9,6.5,56.6,3.5,48,4.1C32.5,5.1,20,17.5,19.1,33c-0.8,13,6.3,24.8,18.1,30.2c4.2,1.9,6.8,6,6.8,10.4    c0,2.4-0.7,4.7-2.1,6.5c-1.3,1.7-1.9,3.8-1.9,5.9c0,5.3,4.4,9.8,9.7,9.9c0.1,0,0.2,0,0.3,0c2.6,0,5.1-1,7-2.8c2-1.9,3-4.4,3-7.2    c0-2.1-0.7-4.1-1.9-5.8C56.7,78.2,56,76,56,73.6c0-4.4,2.7-8.5,6.8-10.4C73.9,58.2,81,47.1,81,35C81,26.5,77.4,18.2,71.2,12.4z     M62,61.4c-4.8,2.2-8,7-8,12.2c0,2.8,0.9,5.5,2.5,7.7c1,1.4,1.5,3,1.5,4.7c0,2.2-0.9,4.2-2.4,5.7C54,93.3,52,94.1,49.8,94    c-4.3-0.1-7.7-3.7-7.8-7.9c0-1.7,0.5-3.4,1.5-4.8c1.6-2.2,2.5-4.9,2.5-7.7c0-5.2-3.1-10-8-12.2c-11-5-17.7-16.1-16.9-28.3    C22,18.6,33.6,7,48.1,6.1C48.7,6,49.4,6,50,6c7.4,0,14.4,2.7,19.8,7.8C75.7,19.4,79,26.9,79,35C79,46.4,72.3,56.7,62,61.4z"/>
<path d="M61,29L44,46c-0.4,0.4-0.4,1,0,1.4c0.2,0.2,0.5,0.3,0.7,0.3s0.5-0.1,0.7-0.3l17-17c0.4-0.4,0.4-1,0-1.4S61.4,28.7,61,29z"/>
<path d="M56,22.5c-0.4-0.4-1-0.4-1.4,0l-17,17c-0.4,0.4-0.4,1,0,1.4c0.2,0.2,0.5,0.3,0.7,0.3s0.5-0.1,0.7-0.3l17-17    C56.3,23.6,56.3,22.9,56,22.5z"/>
</g>
</g>
<g id="spray"/>
<g id="apron"/>
<g id="chair"/>
<g id="mask"/>
</svg>